<?xml version="1.0" encoding="UTF-8" standalone="no"?>
<!-- Created with Inkscape (http://www.inkscape.org/) -->

<svg
   xmlns:dc="http://purl.org/dc/elements/1.1/"
   xmlns:cc="http://creativecommons.org/ns#"
   xmlns:rdf="http://www.w3.org/1999/02/22-rdf-syntax-ns#"
   xmlns:svg="http://www.w3.org/2000/svg"
   xmlns="http://www.w3.org/2000/svg"
   xmlns:sodipodi="http://sodipodi.sourceforge.net/DTD/sodipodi-0.dtd"
   xmlns:inkscape="http://www.inkscape.org/namespaces/inkscape"
   width="1193.8365"
   height="812.56146"
   id="svg3345"
   version="1.1"
   inkscape:version="0.47 r22583"
   sodipodi:docname="bilille.pdf">
  <defs
     id="defs3347">
    <inkscape:perspective
       sodipodi:type="inkscape:persp3d"
       inkscape:vp_x="0 : 406.28073 : 1"
       inkscape:vp_y="0 : 1000 : 0"
       inkscape:vp_z="1193.8365 : 406.28073 : 1"
       inkscape:persp3d-origin="596.91827 : 270.85382 : 1"
       id="perspective21" />
  </defs>
  <sodipodi:namedview
     id="base"
     pagecolor="#ffffff"
     bordercolor="#666666"
     borderopacity="1.0"
     inkscape:pageopacity="0.0"
     inkscape:pageshadow="2"
     inkscape:zoom="0.47"
     inkscape:cx="606.77716"
     inkscape:cy="149.03644"
     inkscape:document-units="px"
     inkscape:current-layer="g4758"
     showgrid="false"
     showborder="false"
     inkscape:showpageshadow="false"
     fit-margin-top="0"
     fit-margin-left="0"
     fit-margin-right="0"
     fit-margin-bottom="0"
     inkscape:window-width="1366"
     inkscape:window-height="656"
     inkscape:window-x="55"
     inkscape:window-y="0"
     inkscape:window-maximized="1" />
  <metadata
     id="metadata3350">
    <rdf:RDF>
      <cc:Work
         rdf:about="">
        <dc:format>image/svg+xml</dc:format>
        <dc:type
           rdf:resource="http://purl.org/dc/dcmitype/StillImage" />
        <dc:title></dc:title>
      </cc:Work>
    </rdf:RDF>
  </metadata>
  <g
     inkscape:label="Calque 1"
     inkscape:groupmode="layer"
     id="layer1"
     transform="translate(211.20397,-183.12286)">
    <g
       transform="translate(-1104.234,3326.1844)"
       id="g4758">
      <rect
         style="fill:#dddddd;stroke-width:0"
         id="rect3008"
         rx="0"
         height="609.29999"
         width="101.1"
         y="-2939.8"
         x="893.03003" />
      <polygon
         style="fill:#dddddd;stroke-width:0"
         id="polygon3010"
         transform="matrix(0.53778,0,0,0.53778,-1114,-4921.5)"
         points="5952,4204 5763,4204 5763,3874 3921,3874 3921,3685 5952,3685 " />
      <path
         style="fill:none;stroke:#000000;stroke-width:33.88000107"
         inkscape:connector-curvature="0"
         id="path3012"
         d="m 1070.5,-2533.8 a 101.64,101.64 0 0 0 0,-203.28" />
      <path
         style="fill:none;stroke:#000000;stroke-width:33.88000107"
         inkscape:connector-curvature="0"
         id="path3014"
         d="m 2036.3,-2533.8 a 101.64,101.64 0 1 1 0,-203.28" />
      <polyline
         style="fill:none;stroke:#000000;stroke-width:63"
         id="polyline3016"
         transform="matrix(0.53778,0,0,0.53778,-1114,-4921.5)"
         points="4488 4488 4488 4015" />
      <polyline
         style="fill:none;stroke:#000000;stroke-width:63"
         id="polyline3018"
         transform="matrix(0.53778,0,0,0.53778,-1114,-4921.5)"
         points="4724 4488 4724 3307" />
      <polyline
         style="fill:none;stroke:#000000;stroke-width:63"
         id="polyline3020"
         transform="matrix(0.53778,0,0,0.53778,-1114,-4921.5)"
         points="4960 4015 4960 4488" />
      <polyline
         style="fill:none;stroke:#000000;stroke-width:63"
         id="polyline3022"
         transform="matrix(0.53778,0,0,0.53778,-1114,-4921.5)"
         points="5196 4488 5196 3307" />
      <polyline
         style="fill:none;stroke:#000000;stroke-width:63"
         id="polyline3024"
         transform="matrix(0.53778,0,0,0.53778,-1114,-4921.5)"
         points="5433 4488 5433 3307" />
      <rect
         style="fill:#ae2573;stroke-width:0;fill-opacity:1"
         id="rect3026"
         rx="0"
         height="101.1"
         width="50.550999"
         y="-2939.8"
         x="1528.1" />
      <rect
         style="fill:#ae2573;stroke-width:0;fill-opacity:1"
         id="rect3028"
         rx="0"
         height="50.550999"
         width="101.1"
         y="-2660.7"
         x="1985.3" />
      <polyline
         style="fill:none;stroke:#000000;stroke-width:63"
         id="polyline3030"
         transform="matrix(0.53778,0,0,0.53778,-1114,-4921.5)"
         points="3921 4488 3921 3307" />
      <rect
         style="fill:#ae2573;stroke-width:0;fill-opacity:1"
         id="rect3032"
         rx="0"
         height="101.1"
         width="50.550999"
         y="-2939.8"
         x="1273.8" />
    </g>
  </g>
</svg>
